<svg width="28" height="33" viewBox="0 0 28 33" fill="none" xmlns="http://www.w3.org/2000/svg">
<path d="M11 29.8571H17C17 31.5857 15.65 33 14 33C12.35 33 11 31.5857 11 29.8571ZM27.5 26.7143V28.2857H0.5V26.7143L3.5 23.5714V14.1429C3.5 9.27143 6.5 5.02857 11 3.61429V3.14286C11 1.41429 12.35 0 14 0C15.65 0 17 1.41429 17 3.14286V3.61429C21.5 5.02857 24.5 9.27143 24.5 14.1429V23.5714L27.5 26.7143ZM21.5 14.1429C21.5 9.74286 18.2 6.28571 14 6.28571C9.8 6.28571 6.5 9.74286 6.5 14.1429V25.1429H21.5V14.1429Z" fill="#222222"/>
</svg>
