<svg width="22" height="22" viewBox="0 0 22 22" fill="none" xmlns="http://www.w3.org/2000/svg">
<path fill-rule="evenodd" clip-rule="evenodd" d="M21.775 7C21.9245 7.65616 22 8.32702 22 9H13V0C15.0394 -8.06959e-06 17.0183 0.692603 18.6125 1.96437C20.2068 3.23613 21.3218 5.01163 21.775 7ZM19.708 7C19.3759 5.88601 18.7716 4.87227 17.9497 4.05031C17.1277 3.22835 16.114 2.62406 15 2.292V7H19.708Z" fill="white"/>
<path fill-rule="evenodd" clip-rule="evenodd" d="M0 13C-5.34913e-06 11.6482 0.304523 10.3137 0.89097 9.09569C1.47742 7.87767 2.33072 6.80741 3.3875 5.96439C4.44428 5.12136 5.6774 4.52723 6.99529 4.22611C8.31317 3.92499 9.68196 3.92463 11 4.22504V11H17.775C18.0565 12.2352 18.0741 13.5158 17.8266 14.7582C17.5791 16.0006 17.0721 17.1767 16.3388 18.2097C15.6055 19.2426 14.6624 20.1092 13.5712 20.7526C12.4799 21.396 11.2652 21.8018 10.0063 21.9434C8.74746 22.0851 7.47289 21.9594 6.26596 21.5746C5.05903 21.1897 3.94694 20.5544 3.00242 19.7102C2.05791 18.8661 1.30224 17.832 0.784858 16.6757C0.267472 15.5193 2.19947e-05 14.2668 0 13ZM15.803 13H9V6.19604C7.65425 6.19584 6.33867 6.59472 5.21963 7.34223C4.10058 8.08974 3.22834 9.15231 2.71321 10.3956C2.19808 11.6388 2.06319 13.0069 2.32561 14.3268C2.58804 15.6467 3.23598 16.8592 4.18749 17.8108C5.13901 18.7625 6.35136 19.4106 7.67124 19.6732C8.99111 19.9358 10.3592 19.8012 11.6025 19.2862C12.8459 18.7713 13.9086 17.8992 14.6562 16.7802C15.4039 15.6613 15.803 14.3458 15.803 13Z" fill="white"/>
</svg>
